if (_typeface_js && _typeface_js.loadFace) _typeface_js.loadFace({"glyphs":{"S":{"x_min":47.625,"x_max":804.53125,"ha":868,"o":"m 416 638 b 758 783 416 638 739 600 b 393 980 766 863 732 995 b 85 720 393 980 123 998 b 355 381 85 720 40 455 b 47 191 355 381 44 433 b 450 -8 47 191 42 -38 b 804 331 450 -8 804 -4 b 416 638 804 331 822 584 "},"\u0000":{"x_min":0,"x_max":0,"ha":0},"/":{"x_min":50.515625,"x_max":546.125,"ha":596,"o":"m 254 22 b 543 927 254 22 483 544 b 475 1068 563 1062 475 1068 b 322 981 475 1068 372 1104 b 51 83 258 826 73 280 b 125 -48 39 -31 125 -48 b 254 22 125 -48 208 -76 "},"K":{"x_min":52.265625,"x_max":949.53125,"ha":1017,"o":"m 289 990 b 69 709 289 990 112 995 b 78 205 25 426 78 205 b 328 -4 78 205 125 -44 b 483 226 507 30 484 215 b 879 26 491 206 637 -122 b 759 518 879 26 1099 141 b 856 900 759 518 1026 725 b 607 900 856 900 741 1018 b 518 762 547 847 525 786 b 289 990 525 809 536 997 "},"7":{"x_min":52.90625,"x_max":762.421875,"ha":833,"o":"m 401 645 b 224 179 401 645 239 391 b 340 1 224 179 205 47 b 601 159 340 1 517 -56 b 726 859 601 159 853 669 b 436 997 726 859 662 987 b 53 756 436 997 43 1037 b 401 645 59 545 401 645 "},"d":{"x_min":56.40625,"x_max":985.625,"ha":1039,"o":"m 938 41 b 903 302 1003 112 1009 251 b 935 793 967 534 935 793 b 712 1048 935 793 918 1048 b 546 675 479 1048 546 675 b 154 597 546 675 321 758 b 71 201 46 493 42 315 b 218 16 102 76 218 16 b 705 31 349 -52 565 -41 b 938 41 705 33 845 -58 m 539 386 b 592 327 573 386 592 356 b 539 276 592 295 569 276 b 485 327 509 276 487 288 b 539 386 482 356 508 386 "},",":{"x_min":28.578125,"x_max":371.078125,"ha":453,"o":"m 370 162 b 198 327 366 254 307 327 b 28 154 88 327 28 250 b 186 -20 28 61 83 -13 b 164 -63 187 -38 190 -63 b 130 -90 164 -63 138 -63 b 164 -143 130 -90 114 -134 b 370 162 164 -143 386 -186 "},"Y":{"x_min":28.234375,"x_max":979.8125,"ha":1028,"o":"m 530 759 b 217 1015 530 759 460 1030 b 31 754 217 1015 0 998 b 304 444 58 545 304 444 b 362 59 304 444 246 191 b 530 -4 362 59 415 -4 b 694 77 601 -4 651 18 b 726 454 694 77 797 222 b 974 751 726 454 928 548 b 796 1005 974 751 1027 977 b 530 759 796 1005 607 1043 "},"E":{"x_min":49.53125,"x_max":850.859375,"ha":928,"o":"m 466 987 b 72 762 466 987 115 1019 b 69 190 72 762 23 433 b 490 -11 69 190 93 -20 b 850 158 490 -11 841 -16 b 529 334 850 158 868 337 b 673 479 547 338 673 372 b 487 626 673 479 695 591 b 847 811 487 626 852 590 b 466 987 847 811 873 976 "},"y":{"x_min":40.109375,"x_max":915,"ha":988,"o":"m 824 701 b 495 488 646 783 536 563 b 415 602 470 525 445 563 b 126 684 272 786 126 684 b 83 373 -38 550 83 373 b 269 168 83 373 149 261 b 317 123 269 168 295 145 b 330 -295 287 58 151 -208 b 646 -138 519 -388 646 -138 b 876 338 646 -138 774 51 b 824 701 986 650 824 701 "},"\"":{"x_min":45.9375,"x_max":550.734375,"ha":622,"o":"m 273 941 b 194 1062 265 1029 228 1047 b 57 991 155 1076 83 1079 b 66 748 27 893 66 748 b 145 665 66 748 80 669 b 235 727 206 662 235 727 b 273 941 257 770 279 879 m 549 941 b 470 1062 541 1029 504 1047 b 333 991 431 1076 359 1079 b 343 748 303 893 343 748 b 421 665 343 748 356 669 b 511 727 483 662 511 727 b 549 941 533 770 555 879 "},"‹":{"x_min":46.28125,"x_max":580.4375,"ha":625,"o":"m 330 15 b 536 36 386 -30 490 -19 b 536 240 635 155 536 240 b 389 376 536 240 468 297 b 498 480 447 440 498 480 b 543 686 564 530 592 606 b 330 736 496 761 390 779 b 46 373 325 733 46 548 b 330 15 46 193 325 20 "},"˙":{"x_min":83.71875,"x_max":414.453125,"ha":540,"o":"m 413 920 b 234 1054 405 1004 323 1063 b 84 886 142 1044 76 968 b 265 752 93 802 172 743 b 413 920 355 762 421 838 "},"„":{"x_min":59.109375,"x_max":681.46875,"ha":756,"o":"m 347 137 b 202 276 343 213 294 276 b 59 130 109 276 59 211 b 191 -16 59 51 105 -11 b 173 -54 192 -33 196 -54 b 144 -76 173 -54 151 -54 b 173 -119 144 -76 131 -113 b 347 137 173 -119 361 -156 m 680 137 b 535 276 676 213 627 276 b 392 130 442 276 392 211 b 524 -16 392 51 438 -11 b 506 -54 525 -33 529 -54 b 477 -76 506 -54 484 -54 b 506 -119 477 -76 464 -113 b 680 137 506 -119 694 -156 "},"g":{"x_min":50.1875,"x_max":892.234375,"ha":944,"o":"m 290 -369 b 875 -8 290 -369 788 -512 b 754 595 875 -8 958 398 b 214 654 634 711 393 762 b 68 456 214 654 117 595 b 135 93 28 341 54 179 b 498 11 265 -48 498 11 b 347 -94 498 11 508 -87 b 184 -163 347 -94 223 -75 b 290 -369 184 -163 110 -304 m 480 359 b 533 301 514 359 533 330 b 480 250 533 269 510 250 b 426 301 450 250 429 262 b 480 359 423 330 449 359 "},"–":{"x_min":80.96875,"x_max":678.796875,"ha":804,"o":"m 553 568 b 206 558 553 568 389 600 b 81 397 63 525 81 397 b 208 254 81 397 80 275 b 579 277 337 233 447 233 b 677 426 695 316 677 426 b 553 568 677 426 677 534 "},"e":{"x_min":41.84375,"x_max":758.140625,"ha":813,"o":"m 488 287 b 758 444 615 262 759 301 b 681 638 756 572 681 638 b 268 712 507 797 268 712 b 42 362 42 629 42 362 b 228 26 32 104 228 26 b 653 6 449 -65 653 6 b 749 150 764 52 749 150 b 488 287 733 279 593 201 m 453 463 b 506 405 487 463 506 434 b 453 354 506 373 483 354 b 398 405 423 354 401 366 b 453 463 396 434 421 463 "},"J":{"x_min":38.46875,"x_max":686.359375,"ha":760,"o":"m 238 354 b 123 276 238 354 251 287 b 55 101 53 270 13 168 b 574 58 156 -56 487 -27 b 681 326 677 161 681 326 b 675 734 681 326 695 483 b 443 988 653 1006 443 988 b 231 695 227 986 231 695 b 238 354 231 695 227 501 "},"|":{"x_min":44.359375,"x_max":301.046875,"ha":358,"o":"m 272 11 b 292 947 272 11 319 423 b 178 1076 285 1076 178 1076 b 65 950 178 1076 78 1081 b 51 11 49 783 35 347 b 161 -87 57 -101 161 -87 b 272 11 161 -87 255 -95 "},"˘":{"x_min":44.921875,"x_max":484.5625,"ha":546,"o":"m 44 958 b 269 779 44 880 133 779 b 484 958 390 779 484 879 b 413 1037 484 998 458 1037 b 269 927 330 1037 334 927 b 114 1040 209 927 185 1040 b 44 958 80 1040 44 1004 "},"^":{"x_min":49.625,"x_max":806.484375,"ha":882,"o":"m 77 756 b 98 547 32 700 43 594 b 298 547 215 445 298 547 b 431 697 298 547 353 616 b 533 586 494 637 533 586 b 735 540 582 518 657 490 b 784 756 808 587 826 695 b 428 1047 781 762 600 1047 b 77 756 251 1047 83 762 "},"q":{"x_min":60.75,"x_max":972.28125,"ha":1010,"o":"m 737 -338 b 957 -123 933 -338 957 -123 b 869 586 957 -123 1025 361 b 248 687 761 741 451 795 b 79 479 248 687 123 618 b 168 69 40 351 59 159 b 549 34 345 -79 549 34 b 737 -338 549 34 502 -338 m 513 380 b 566 322 547 380 566 351 b 513 270 566 290 543 270 b 459 322 483 270 462 283 b 513 380 456 351 482 380 "},"b":{"x_min":47.25,"x_max":885.03125,"ha":944,"o":"m 288 1062 b 70 838 100 1079 70 838 b 145 138 70 838 -16 355 b 687 27 242 9 478 -69 b 853 201 687 27 792 66 b 816 587 905 313 894 497 b 439 673 654 775 439 673 b 288 1062 439 673 521 1040 m 473 401 b 526 343 507 401 526 372 b 473 291 526 311 503 291 b 419 343 443 291 421 304 b 473 401 416 372 442 401 "},"D":{"x_min":54.359375,"x_max":883.671875,"ha":950,"o":"m 849 250 b 818 770 941 576 818 770 b 362 983 818 770 710 986 b 84 773 362 983 123 1004 b 54 433 84 773 54 627 b 103 104 54 337 50 198 b 385 -15 103 104 171 -16 b 849 250 385 -15 764 -45 m 472 533 b 525 475 506 533 525 504 b 472 423 525 443 502 423 b 417 475 442 423 417 430 b 472 533 417 520 441 533 "},"∙":{"x_min":66.6875,"x_max":409.6875,"ha":489,"o":"m 409 345 b 238 520 409 441 349 520 b 66 345 127 520 66 441 b 238 170 66 248 127 170 b 409 345 349 170 409 248 "},"z":{"x_min":45.890625,"x_max":781.28125,"ha":822,"o":"m 85 104 b 439 -19 119 -18 283 -19 b 781 170 596 -19 781 -18 b 543 351 781 359 543 351 b 707 593 687 477 707 593 b 398 773 725 698 645 765 b 46 602 35 783 46 602 b 251 425 35 411 250 425 b 85 104 242 418 42 275 "},"ˆ":{"x_min":45.28125,"x_max":485.015625,"ha":546,"o":"m 62 909 b 74 798 35 876 40 826 b 183 811 136 748 183 811 b 269 881 183 811 217 848 b 343 815 310 858 340 816 b 451 795 368 779 416 770 b 470 905 487 820 495 870 b 269 1040 468 909 370 1040 b 62 909 164 1040 65 913 "},"w":{"x_min":22,"x_max":1123.109375,"ha":1169,"o":"m 808 -18 b 1034 134 808 -18 948 -25 b 1122 504 1034 134 1114 270 b 929 730 1122 504 1136 727 b 711 402 929 730 711 745 b 574 562 711 402 718 561 b 449 426 574 562 453 568 b 200 730 446 498 421 730 b 23 498 200 730 5 723 b 122 141 23 498 32 316 b 343 -19 122 141 191 -19 b 573 173 536 -19 568 143 b 808 -18 573 147 592 -18 "},"$":{"x_min":51.28125,"x_max":724.359375,"ha":811,"o":"m 504 584 l 504 595 b 718 731 588 598 718 620 b 500 891 718 793 683 870 b 498 968 500 916 499 941 b 401 1097 492 1097 401 1097 b 304 970 401 1097 317 1102 l 299 883 b 91 669 208 862 98 808 b 284 436 91 669 74 493 b 51 301 284 436 51 470 b 291 108 51 301 29 150 l 294 31 b 387 -66 298 -80 387 -66 b 480 31 387 -66 466 -75 b 487 102 480 31 483 56 b 724 358 568 116 724 168 b 504 584 724 358 740 526 "},"™":{"x_min":44.84375,"x_max":1385.640625,"ha":1521,"o":"m 1120 719 b 1265 469 1124 619 1142 469 b 1385 649 1286 469 1385 474 b 1327 945 1385 649 1385 807 b 1169 1071 1327 945 1275 1071 b 1018 888 1053 1071 1024 928 l 1012 888 b 858 1070 1007 928 990 1070 b 699 950 830 1070 747 1062 b 638 637 698 950 638 821 b 789 469 638 603 646 469 b 907 720 838 469 886 513 l 916 720 b 1015 545 926 603 954 545 b 1112 719 1083 545 1099 592 l 1120 719 m 209 820 b 200 680 209 820 200 755 b 338 466 200 471 283 466 b 456 682 386 466 456 484 b 443 825 456 721 453 770 l 461 825 b 596 949 499 825 596 838 b 502 1055 596 963 592 1035 b 326 1070 502 1055 426 1070 b 152 1053 273 1070 212 1066 b 44 930 152 1053 44 1041 b 189 819 44 830 144 819 b 209 820 201 819 209 820 "},"\\":{"x_min":88.125,"x_max":583.765625,"ha":688,"o":"m 509 -45 b 582 86 509 -45 594 -29 b 311 984 560 283 375 829 b 159 1070 261 1106 159 1070 b 91 930 159 1070 70 1065 b 379 25 151 547 379 25 b 509 -45 426 -73 509 -45 "},"’":{"x_min":52.109375,"x_max":341.46875,"ha":411,"o":"m 340 865 b 195 1004 336 941 287 1004 b 52 858 102 1004 52 938 b 184 711 52 779 98 716 b 166 673 185 694 189 673 b 137 651 166 673 144 673 b 166 608 137 651 124 613 b 340 865 166 608 354 570 "},"~":{"x_min":43.875,"x_max":601.234375,"ha":689,"o":"m 578 297 b 524 465 651 427 524 465 b 405 393 468 483 423 445 l 402 398 b 49 344 121 623 49 344 b 108 218 31 295 61 234 b 245 302 108 218 212 177 b 578 297 245 302 466 98 "},"-":{"x_min":64.640625,"x_max":662.65625,"ha":731,"o":"m 537 561 b 190 558 537 561 372 600 b 65 397 47 525 65 397 b 191 254 65 397 63 275 b 563 266 321 233 428 229 b 661 419 680 300 661 419 b 537 561 661 419 661 527 "},"Q":{"x_min":77.578125,"x_max":1086.75,"ha":1157,"o":"m 982 286 b 1026 500 1008 340 1026 398 b 579 973 1026 500 1026 973 b 77 448 579 973 77 1026 b 579 -25 77 448 77 -25 b 754 15 579 -25 661 -25 b 1049 20 790 -50 948 -134 b 982 286 1135 152 1056 229 m 579 513 b 632 455 613 513 632 484 b 579 404 632 423 609 404 b 525 455 549 404 528 416 b 579 513 522 484 548 513 "},"M":{"x_min":40.53125,"x_max":1288.109375,"ha":1371,"o":"m 424 994 b 142 795 424 994 238 1018 b 40 284 142 795 40 586 b 292 -8 40 284 21 -8 b 526 436 292 -8 526 -15 b 676 233 526 436 534 233 b 808 433 676 233 792 216 b 1083 -8 808 433 800 -8 b 1287 293 1083 -8 1299 -19 b 1189 784 1287 293 1287 555 b 925 997 1189 784 1102 997 b 669 698 710 997 673 737 b 424 994 669 722 664 994 "},"C":{"x_min":37.890625,"x_max":918.40625,"ha":965,"o":"m 676 591 b 888 672 846 559 888 672 b 824 927 959 843 824 927 b 396 977 637 1041 396 977 b 38 505 20 890 38 505 b 330 26 28 104 330 26 b 809 38 646 -62 809 38 b 917 254 936 109 917 254 b 680 405 894 443 680 405 b 519 506 507 386 519 506 b 676 591 526 623 676 591 "},"[":{"x_min":81.515625,"x_max":808.6875,"ha":857,"o":"m 680 30 b 445 30 641 33 526 37 b 451 912 451 134 470 655 b 445 987 449 937 449 966 b 692 1006 528 993 631 997 b 808 1108 815 1026 808 1108 b 700 1205 808 1108 818 1180 b 242 1190 564 1234 357 1227 b 130 1106 202 1177 141 1133 b 87 925 77 1025 87 925 b 93 104 87 925 70 272 b 304 -197 93 104 99 -151 b 679 -193 379 -213 515 -225 b 797 -70 805 -168 797 -70 b 680 30 797 -70 808 20 "},"L":{"x_min":45.90625,"x_max":851.734375,"ha":904,"o":"m 483 394 b 279 984 483 394 585 994 b 65 758 279 984 106 995 b 78 258 65 758 13 448 b 483 -15 78 258 145 -25 b 849 286 849 -4 860 236 b 483 394 849 286 800 566 "},"!":{"x_min":71.984375,"x_max":540.0625,"ha":619,"o":"m 84 566 b 304 344 84 566 112 344 b 521 515 475 344 521 515 b 521 854 521 515 563 675 b 304 1047 476 1043 304 1047 b 77 825 92 1047 77 825 b 84 566 77 825 61 661 m 480 106 b 303 256 480 190 401 256 b 127 106 206 256 127 190 b 303 -43 127 23 206 -43 b 480 106 401 -43 480 23 "}," ":{"x_min":0,"x_max":0,"ha":594},"{":{"x_min":144.28125,"x_max":656.546875,"ha":789,"o":"m 589 80 b 570 270 589 80 491 100 b 513 477 624 388 534 462 b 570 684 534 493 624 565 b 589 875 491 854 589 875 b 649 994 687 894 649 994 b 507 1079 628 1063 507 1079 b 314 1016 362 1091 314 1016 b 303 777 240 920 303 777 b 269 638 303 777 355 654 b 144 480 269 638 147 636 l 144 475 b 269 315 147 319 269 315 b 303 176 355 300 303 176 b 314 -62 303 176 240 34 b 507 -123 314 -62 362 -136 b 649 -40 507 -123 628 -109 b 589 80 649 -40 687 59 "},"X":{"x_min":24.15625,"x_max":1039,"ha":1157,"o":"m 547 748 b 117 945 547 748 356 1140 b 228 501 -144 734 228 501 b 127 48 228 501 -95 262 b 530 238 364 -179 530 238 b 962 50 552 180 745 -159 b 868 490 1178 261 868 490 b 958 940 868 490 1158 762 b 547 748 711 1159 547 748 "},"P":{"x_min":77.421875,"x_max":944.171875,"ha":1024,"o":"m 943 643 b 531 1001 943 643 937 987 b 119 745 531 1001 217 1034 b 113 198 119 745 29 487 b 388 4 113 198 174 -18 b 531 284 388 4 591 13 b 943 643 531 284 957 236 m 528 670 b 581 612 562 670 581 641 b 528 561 581 580 558 561 b 474 612 498 561 476 573 b 528 670 471 641 497 670 "},"%":{"x_min":48.734375,"x_max":910.796875,"ha":1032,"o":"m 371 76 b 764 805 371 76 651 487 b 728 937 803 918 728 937 b 583 888 728 937 645 986 b 208 162 503 765 258 327 b 250 36 179 65 250 36 b 371 76 250 36 317 -1 m 417 713 b 272 933 436 815 393 909 b 51 773 145 956 70 875 b 196 570 34 670 96 590 b 417 713 295 551 394 588 m 906 165 b 760 384 925 266 882 361 b 540 223 634 408 559 325 b 684 20 522 122 583 40 b 906 165 784 2 883 38 "},"#":{"x_min":53.078125,"x_max":985.453125,"ha":1054,"o":"m 892 534 b 985 633 974 552 985 593 b 849 750 985 672 982 737 b 856 830 852 777 856 808 b 748 933 856 908 807 933 b 624 766 692 933 661 911 b 518 768 589 766 553 768 b 524 834 521 788 524 812 b 416 933 524 904 480 933 b 289 755 359 933 328 909 b 208 741 258 752 232 748 b 118 634 119 715 118 668 b 240 536 118 630 123 536 b 228 465 235 512 231 488 b 53 354 77 459 53 395 b 159 247 53 331 59 256 l 201 243 b 200 170 200 216 200 191 b 294 61 200 69 289 61 b 401 150 313 61 381 65 l 421 233 b 533 231 457 231 495 231 b 532 200 532 220 532 209 b 628 61 532 75 602 61 b 733 150 641 61 710 63 l 756 237 l 827 243 b 920 344 918 250 920 330 b 803 458 920 372 914 450 l 816 527 b 892 534 852 527 873 530 m 475 477 l 483 525 l 570 520 l 562 476 l 475 477 "},"_":{"x_min":82.6875,"x_max":881.046875,"ha":953,"o":"m 758 205 b 212 205 758 205 473 243 b 83 77 69 184 83 77 b 208 -33 83 77 81 -22 b 784 -23 387 -48 647 -47 b 880 95 892 -4 880 95 b 758 205 880 95 884 191 "},"+":{"x_min":59.734375,"x_max":784.234375,"ha":858,"o":"m 784 497 b 666 637 784 497 785 608 b 574 654 641 644 609 650 b 559 731 570 679 564 705 b 402 851 529 861 402 851 b 265 731 402 851 294 851 b 250 645 258 706 254 677 b 148 618 210 638 174 630 b 59 477 59 577 59 477 b 176 318 59 477 50 337 b 257 306 176 318 205 311 b 284 201 264 265 272 229 b 421 111 323 111 421 111 b 578 231 421 111 559 101 b 590 322 578 231 586 263 b 666 337 615 326 641 331 b 784 497 794 368 784 497 "},"‚":{"x_min":52.109375,"x_max":341.46875,"ha":411,"o":"m 340 143 b 195 281 336 219 287 281 b 52 136 102 281 52 216 b 184 -11 52 56 98 -5 b 166 -48 185 -27 189 -48 b 137 -70 166 -48 144 -48 b 166 -113 137 -70 124 -108 b 340 143 166 -113 354 -151 "},")":{"x_min":59.71875,"x_max":552.3125,"ha":621,"o":"m 408 -4 b 458 943 408 -4 695 437 b 159 1122 416 1033 302 1180 b 70 933 13 1062 70 933 b 88 115 70 933 247 573 b 167 -84 88 115 35 -25 b 408 -4 276 -133 359 -84 "},"'":{"x_min":41.859375,"x_max":270.34375,"ha":311,"o":"m 269 941 b 190 1062 261 1029 224 1047 b 53 991 151 1076 78 1079 b 62 748 23 893 62 748 b 141 665 62 748 76 669 b 231 727 202 662 231 727 b 269 941 253 770 274 879 "},"}":{"x_min":101.03125,"x_max":613.859375,"ha":718,"o":"m 167 93 b 108 -27 69 72 108 -27 b 249 -112 127 -97 249 -112 b 443 -50 394 -125 443 -50 b 453 188 515 45 453 188 b 487 327 453 188 402 312 b 613 486 487 327 611 331 l 613 491 b 487 651 611 647 487 651 b 453 790 402 666 453 790 b 443 1029 453 790 515 933 b 249 1091 443 1029 394 1102 b 108 1006 249 1091 127 1076 b 167 886 108 1006 69 906 b 186 695 167 886 265 866 b 245 488 132 577 223 504 b 186 281 223 473 132 401 b 167 93 265 112 167 93 "},"‰":{"x_min":48.734375,"x_max":1359.96875,"ha":1468,"o":"m 371 76 b 764 805 371 76 651 487 b 728 937 803 918 728 937 b 583 888 728 937 645 986 b 208 162 503 765 258 327 b 250 36 179 65 250 36 b 371 76 250 36 317 -1 m 417 713 b 272 933 436 815 393 909 b 51 773 145 956 70 875 b 196 570 34 670 96 590 b 417 713 295 551 394 588 m 906 165 b 760 384 925 266 882 361 b 540 223 634 408 559 325 b 684 20 522 122 583 40 b 906 165 784 2 883 38 m 1355 165 b 1210 384 1374 266 1331 361 b 989 223 1083 408 1008 325 b 1133 20 971 122 1033 40 b 1355 165 1233 2 1332 38 "},"˛":{"x_min":70.78125,"x_max":349.8125,"ha":432,"o":"m 253 76 b 70 -179 145 -7 70 -90 b 209 -324 70 -275 127 -324 b 258 -322 225 -324 242 -322 b 321 -261 292 -322 321 -296 b 258 -210 321 -218 288 -210 b 197 -161 225 -210 197 -200 b 349 20 197 -121 217 -64 l 253 76 "},"a":{"x_min":40.15625,"x_max":931,"ha":978,"o":"m 329 713 b 40 313 12 684 40 313 b 302 -14 40 -4 302 -14 b 579 106 543 -43 579 106 b 735 -24 600 -33 735 -24 b 929 368 735 -24 950 -53 b 725 723 929 368 928 723 b 570 604 604 723 571 610 b 329 713 566 617 521 731 m 510 386 b 563 328 544 386 563 357 b 510 277 563 296 540 277 b 455 328 480 277 458 289 b 510 386 453 357 479 386 "},"T":{"x_min":27.21875,"x_max":947.390625,"ha":996,"o":"m 303 576 b 303 148 303 576 264 336 b 507 -13 341 -31 507 -13 b 692 148 507 -13 657 -25 b 692 587 692 148 739 306 b 947 790 692 587 939 554 b 789 969 947 790 955 933 b 206 965 789 969 495 1026 b 27 759 206 965 27 944 b 303 576 27 545 303 576 "},"—":{"x_min":80.96875,"x_max":847.109375,"ha":1157,"o":"m 722 568 b 206 558 722 568 434 613 b 81 397 63 523 81 397 b 208 254 81 397 83 280 b 744 269 370 219 612 225 b 846 426 860 308 846 426 b 722 568 846 426 846 541 "},"=":{"x_min":71.421875,"x_max":665.390625,"ha":744,"o":"m 541 763 b 196 761 541 763 377 794 b 72 636 54 736 72 636 b 197 525 72 636 70 541 b 567 534 326 508 432 505 b 664 654 683 561 664 654 b 541 763 664 654 664 737 m 541 455 b 196 452 541 455 377 486 b 72 327 54 427 72 327 b 197 216 72 327 70 233 b 567 226 326 200 432 197 b 664 345 683 252 664 345 b 541 455 664 345 664 429 "},"N":{"x_min":44.609375,"x_max":1070.75,"ha":1143,"o":"m 74 766 b 74 151 74 766 6 443 b 262 -2 74 151 107 -6 b 481 406 262 -2 503 -44 b 818 -2 485 363 537 -8 b 1035 205 818 -2 986 -30 b 1046 823 1035 205 1106 502 b 852 981 1046 823 1023 987 b 635 630 852 981 634 1004 b 328 991 632 679 608 1004 b 74 766 114 981 74 766 "},"˚":{"x_min":55.8125,"x_max":389.28125,"ha":457,"o":"m 389 876 b 223 1036 389 963 314 1036 b 55 876 130 1036 55 963 b 223 716 55 787 130 716 b 389 876 314 716 389 787 m 221 951 b 294 876 266 951 294 925 b 223 806 294 836 274 806 b 148 877 170 806 148 837 b 221 951 148 919 171 951 "},"⁄":{"x_min":49.15625,"x_max":544.765625,"ha":594,"o":"m 253 36 b 541 941 253 36 481 558 b 473 1081 562 1076 473 1081 b 321 995 473 1081 371 1118 b 50 97 257 840 72 294 b 123 -34 38 -18 123 -34 b 253 36 123 -34 206 -62 "},"2":{"x_min":39.296875,"x_max":745.984375,"ha":808,"o":"m 307 980 b 39 763 307 980 31 951 b 172 645 39 763 51 620 b 307 622 172 645 261 687 b 249 461 344 570 299 504 b 58 158 144 370 40 315 b 359 -5 58 158 69 -4 b 745 162 359 -5 740 -29 b 528 352 751 359 528 352 b 630 845 528 352 758 604 b 307 980 630 845 562 1001 "},"j":{"x_min":-92.0625,"x_max":499.421875,"ha":563,"o":"m 446 897 b 277 1062 450 983 375 1058 b 93 915 181 1068 99 1001 b 262 748 89 827 166 754 b 446 897 359 744 442 811 m 472 -95 b 480 538 528 250 480 538 b 266 706 480 538 475 706 b 74 541 266 706 83 715 b 62 38 59 231 69 122 b -8 -151 62 38 69 -140 b -91 -275 -8 -151 -102 -165 b 38 -395 -91 -275 -91 -376 b 362 -315 38 -395 245 -431 b 472 -95 451 -226 472 -95 "},"Z":{"x_min":48.859375,"x_max":945.96875,"ha":1010,"o":"m 332 544 b 95 127 332 544 23 344 b 521 -26 148 -33 332 -26 b 945 211 710 -26 945 -26 b 615 401 945 450 615 401 b 842 766 811 581 842 766 b 473 973 861 901 770 968 b 49 751 28 981 49 751 b 332 544 49 522 332 544 "},"u":{"x_min":56.796875,"x_max":877.9375,"ha":944,"o":"m 279 713 b 72 559 279 713 112 744 b 125 120 72 559 13 287 b 481 -23 125 120 200 -16 b 826 188 748 -30 826 188 b 867 563 826 188 906 370 b 665 715 867 563 845 725 b 510 533 665 715 511 715 b 468 366 509 416 510 366 b 424 533 421 366 426 469 b 279 713 420 704 279 713 "},"1":{"x_min":29.390625,"x_max":627.140625,"ha":683,"o":"m 280 630 b 254 166 280 630 210 387 b 424 0 254 166 283 0 b 617 241 424 0 600 -13 b 498 922 617 241 676 797 b 193 922 498 922 377 1013 b 49 630 193 922 -38 805 b 280 630 112 501 280 630 "},"›":{"x_min":55.203125,"x_max":589.359375,"ha":654,"o":"m 304 727 b 99 706 249 773 145 762 b 99 502 0 587 99 502 b 246 366 99 502 167 445 b 137 262 187 302 137 262 b 92 56 70 212 43 136 b 304 6 138 -18 245 -36 b 589 369 310 9 589 194 b 304 727 589 550 310 722 "},"˜":{"x_min":64.28125,"x_max":621.65625,"ha":708,"o":"m 598 873 b 544 1041 672 1004 544 1041 b 426 969 488 1059 443 1022 l 423 975 b 69 920 141 1200 69 920 b 129 794 51 872 81 811 b 265 879 129 794 232 754 b 598 873 265 879 487 675 "},"k":{"x_min":53.078125,"x_max":956.859375,"ha":1001,"o":"m 491 754 b 283 1040 491 759 495 1040 b 85 844 133 1040 104 920 b 53 483 85 844 53 681 b 88 162 53 380 62 268 b 287 -20 88 159 136 -20 b 490 265 470 -20 490 181 b 488 298 490 283 488 295 b 775 -15 494 280 598 -15 b 956 156 860 -15 956 56 b 756 481 956 273 860 415 b 862 701 756 481 862 588 b 816 818 862 741 850 780 b 681 877 816 818 760 877 b 491 754 626 877 559 850 "},"ˇ":{"x_min":67.59375,"x_max":507.328125,"ha":572,"o":"m 490 859 b 477 970 517 893 511 943 b 368 958 416 1020 368 958 b 283 887 368 958 334 920 b 208 954 242 909 210 951 l 209 954 b 100 973 183 990 136 998 b 81 863 65 948 57 898 b 283 729 84 859 182 729 b 490 859 387 729 487 855 "},"€":{"x_min":29.9375,"x_max":925.21875,"ha":968,"o":"m 187 700 b 29 618 187 700 29 738 b 176 529 29 498 176 529 b 176 458 167 498 176 458 b 29 368 176 458 29 488 b 186 279 29 238 186 279 b 635 -12 240 50 405 -20 b 902 268 850 -4 962 144 b 706 298 864 347 752 318 b 597 329 608 258 597 329 b 744 418 597 329 758 329 b 568 468 735 488 568 468 b 568 508 559 488 568 508 b 744 558 568 508 735 477 b 597 638 755 638 597 638 b 744 668 597 638 594 709 b 922 768 909 622 922 768 b 588 988 958 980 588 988 b 187 700 245 988 187 700 "},"<":{"x_min":46.28125,"x_max":580.4375,"ha":658,"o":"m 330 147 b 536 168 386 101 490 112 b 536 372 635 287 536 372 b 389 508 536 372 468 429 b 498 612 447 572 498 612 b 543 818 564 662 592 738 b 330 868 496 893 390 911 b 46 505 325 865 46 680 b 330 147 46 325 325 152 "},"t":{"x_min":13.609375,"x_max":902.421875,"ha":935,"o":"m 261 809 b 13 622 167 809 13 776 b 287 454 13 401 287 454 b 484 -16 269 204 251 -16 b 660 445 718 -16 660 445 b 902 622 660 445 902 423 b 643 806 902 836 643 806 b 447 1052 643 806 673 1052 b 261 809 215 1054 261 809 "},"W":{"x_min":41.46875,"x_max":1313.484375,"ha":1383,"o":"m 933 -11 b 1215 188 933 -11 1122 -20 b 1313 690 1215 188 1313 388 b 1069 991 1313 690 1320 995 b 826 540 1069 991 826 991 b 672 750 826 540 833 748 b 533 566 672 750 537 758 b 251 991 529 665 499 991 b 42 690 251 991 27 993 b 141 198 42 690 42 427 b 415 -13 141 198 231 -13 b 680 283 637 -13 676 245 b 933 -11 680 259 683 -11 "},"v":{"x_min":14.28125,"x_max":850.15625,"ha":882,"o":"m 441 420 b 161 711 441 420 383 754 b 43 375 -27 672 5 472 b 441 -8 80 276 212 -8 b 798 327 657 -8 798 327 b 724 712 798 327 954 661 b 441 420 470 768 441 420 "},">":{"x_min":55.203125,"x_max":589.359375,"ha":650,"o":"m 304 861 b 99 840 249 906 145 895 b 99 636 0 720 99 636 b 246 500 99 636 167 579 b 137 395 187 436 137 395 b 92 190 70 345 43 269 b 304 140 138 115 245 97 b 589 502 310 143 589 327 b 304 861 589 683 310 855 "},"s":{"x_min":46.109375,"x_max":725.734375,"ha":779,"o":"m 428 441 b 720 570 428 441 711 404 b 420 738 724 661 675 733 b 72 511 420 738 83 747 b 304 308 72 511 61 366 b 46 125 304 308 39 309 b 428 -43 46 125 25 -59 b 725 208 428 -43 725 -34 b 428 441 725 208 745 401 "},"B":{"x_min":50.359375,"x_max":866.265625,"ha":928,"o":"m 507 991 b 104 781 507 991 201 1034 b 50 468 104 781 50 659 b 115 162 50 373 61 256 b 506 0 115 162 200 -18 b 865 318 506 0 883 12 b 699 523 865 318 865 472 b 813 801 699 523 868 600 b 507 991 813 801 764 981 m 460 713 b 514 661 495 713 514 688 b 460 601 514 631 495 601 b 405 661 419 601 405 631 b 460 713 405 691 430 713 m 472 380 b 525 322 506 380 525 351 b 472 270 525 290 502 270 b 417 322 442 270 420 283 b 472 380 415 351 441 380 "},"…":{"x_min":66.6875,"x_max":1367.921875,"ha":1467,"o":"m 409 161 b 238 336 409 256 349 336 b 66 161 127 336 66 256 b 238 -13 66 63 127 -13 b 409 161 349 -13 409 63 m 888 161 b 717 336 888 256 828 336 b 545 161 607 336 545 256 b 717 -13 545 63 607 -13 b 888 161 828 -13 888 63 m 1367 161 b 1196 336 1367 256 1308 336 b 1024 161 1086 336 1024 256 b 1196 -13 1024 63 1086 -13 b 1367 161 1308 -13 1367 63 "},"?":{"x_min":79.828125,"x_max":794.921875,"ha":897,"o":"m 692 84 b 513 243 692 179 617 243 b 340 87 408 243 340 186 b 513 -66 340 2 408 -66 b 692 84 617 -66 692 -11 m 714 402 b 676 959 769 488 882 825 b 175 948 379 1154 175 948 b 155 584 -27 734 155 584 b 434 630 285 473 434 630 b 415 325 434 630 291 404 b 714 402 607 201 714 402 "},"H":{"x_min":46.34375,"x_max":1006.921875,"ha":1064,"o":"m 498 679 b 272 995 498 679 509 995 b 65 762 95 995 65 762 b 55 259 65 762 29 579 b 274 -2 78 -13 274 -2 b 504 311 488 -1 504 311 l 555 311 b 777 -5 555 311 560 -2 b 993 237 974 -6 993 237 b 993 722 993 237 1023 461 b 777 997 962 995 777 997 b 549 679 541 997 549 679 l 498 679 "},"c":{"x_min":51.671875,"x_max":754.734375,"ha":792,"o":"m 522 395 b 718 476 679 365 718 476 b 688 645 756 586 688 645 b 296 715 530 795 296 715 b 51 354 42 636 51 354 b 225 19 51 98 225 19 b 669 36 490 -101 669 36 b 737 255 805 136 737 255 b 524 323 658 386 524 323 b 427 355 427 286 427 355 b 522 395 427 426 522 395 "},"&":{"x_min":53.53125,"x_max":1038.59375,"ha":1108,"o":"m 238 648 b 62 368 84 523 62 368 b 216 -22 8 88 216 -22 b 664 11 455 -156 664 11 b 936 -79 664 11 792 -186 b 914 219 1097 41 924 211 b 1014 479 924 226 1102 361 b 773 445 921 598 773 445 b 631 648 721 558 631 648 b 631 980 773 836 631 980 b 255 972 536 1079 364 1083 b 238 648 133 847 238 648 m 475 277 b 381 263 475 277 423 208 b 419 358 381 263 334 316 l 475 277 "},"−":{"x_min":64.640625,"x_max":662.65625,"ha":754,"o":"m 537 561 b 190 558 537 561 372 600 b 65 397 47 525 65 397 b 191 254 65 397 63 275 b 563 266 321 233 428 229 b 661 419 680 300 661 419 b 537 561 661 419 661 527 "},"˝":{"x_min":39.0625,"x_max":824.828125,"ha":892,"o":"m 66 926 b 47 818 66 926 20 873 b 153 777 77 758 153 777 b 375 866 153 777 299 798 b 383 1023 443 926 412 993 b 243 1048 356 1050 325 1076 b 66 926 185 1029 96 965 m 475 926 b 455 818 475 926 428 873 b 562 777 485 758 562 777 b 784 866 562 777 707 798 b 792 1023 852 926 820 993 b 651 1048 764 1050 733 1076 b 475 926 593 1029 504 965 "},"I":{"x_min":41.765625,"x_max":530.53125,"ha":583,"o":"m 53 281 b 292 -12 53 281 68 -9 b 517 227 496 -13 517 227 b 517 708 517 227 547 450 b 292 979 484 979 292 979 b 47 669 57 977 47 669 b 53 281 47 669 31 433 "},"•":{"x_min":95.28125,"x_max":647.890625,"ha":751,"o":"m 647 454 b 371 736 647 608 552 736 b 95 454 193 736 95 608 b 371 172 95 297 193 172 b 647 454 552 172 647 297 "},"ˉ":{"x_min":91.1875,"x_max":635.640625,"ha":731,"o":"m 377 1075 b 91 970 193 1075 91 1041 b 390 868 91 900 196 868 b 635 973 548 868 635 901 b 377 1075 635 1047 553 1075 "},"G":{"x_min":27.265625,"x_max":999.5625,"ha":1047,"o":"m 622 387 b 443 505 443 323 443 505 b 622 620 446 683 622 620 b 860 662 812 545 860 662 b 834 873 916 786 834 873 b 371 983 653 1066 371 983 b 27 490 11 862 27 490 b 371 -1 27 45 371 -1 b 688 79 541 -31 648 26 b 849 -59 687 -29 770 -59 b 991 90 849 -59 981 -59 b 957 490 991 90 1025 401 b 869 536 957 490 932 526 b 569 490 774 551 593 555 b 622 387 569 490 539 423 "},"`":{"x_min":74.859375,"x_max":452.296875,"ha":522,"o":"m 247 1066 b 107 1041 166 1094 134 1068 b 115 884 78 1011 47 944 b 337 795 191 816 337 795 b 443 836 337 795 413 776 b 424 944 470 891 424 944 b 247 1066 394 983 306 1047 "},"(":{"x_min":54.734375,"x_max":547.34375,"ha":617,"o":"m 198 1036 b 148 88 198 1036 -88 594 b 447 -90 190 -1 304 -148 b 536 98 593 -30 536 98 b 518 916 536 98 359 458 b 439 1116 518 916 571 1056 b 198 1036 330 1165 247 1116 "},"U":{"x_min":54.3125,"x_max":1006.265625,"ha":1065,"o":"m 292 987 b 68 776 292 987 111 1009 b 142 176 68 776 6 412 b 534 -20 142 176 240 -18 b 966 279 886 -23 966 279 b 982 825 966 279 1043 545 b 762 977 982 825 947 988 b 573 776 762 977 567 988 b 521 479 577 618 586 479 b 468 776 454 479 468 618 b 292 987 468 987 292 987 "},"F":{"x_min":34.484375,"x_max":827.765625,"ha":864,"o":"m 481 356 b 679 515 481 356 679 361 b 509 650 679 515 690 623 b 827 830 509 650 837 627 b 491 1013 827 830 842 994 b 54 784 491 1013 102 1051 b 54 254 54 784 9 500 b 281 0 54 254 81 0 b 481 356 281 0 560 -48 "},"r":{"x_min":32.3125,"x_max":799.109375,"ha":831,"o":"m 431 622 b 251 747 431 622 404 752 b 44 580 251 747 83 756 b 69 125 44 580 4 323 b 265 -9 69 125 111 -13 b 481 406 265 -9 541 -40 b 717 380 481 406 602 312 b 798 548 717 380 803 429 b 668 719 797 597 778 690 b 431 622 668 719 525 758 "},":":{"x_min":70.78125,"x_max":378.390625,"ha":471,"o":"m 378 566 b 223 723 378 652 325 723 b 70 566 126 723 70 652 b 223 411 70 479 126 411 b 378 566 325 411 378 479 m 378 130 b 223 288 378 218 325 288 b 70 130 126 288 70 218 b 223 -25 70 43 126 -25 b 378 130 325 -25 378 43 "},"x":{"x_min":39.15625,"x_max":810.765625,"ha":867,"o":"m 426 595 b 107 668 426 595 299 851 b 138 355 -40 523 138 355 b 119 22 138 355 -72 198 b 415 111 296 -141 415 111 b 732 22 431 68 552 -133 b 702 363 920 184 713 355 b 743 668 711 372 886 537 b 426 595 564 830 426 595 "},"*":{"x_min":93.46875,"x_max":744.53125,"ha":868,"o":"m 332 819 b 111 800 332 819 191 930 b 217 615 36 676 217 615 b 187 430 96 523 187 430 b 382 466 308 322 382 466 b 564 369 382 466 439 294 b 578 568 686 443 578 568 b 744 691 578 568 744 523 b 549 800 744 861 549 800 b 443 984 609 984 443 984 b 332 819 295 984 332 819 "},"†":{"x_min":44.921875,"x_max":819.390625,"ha":890,"o":"m 619 821 b 624 909 623 855 624 881 b 394 1064 624 1018 585 1064 b 234 867 253 1064 234 939 b 236 824 234 841 236 824 b 186 830 221 827 204 830 b 44 707 119 830 44 791 b 166 578 44 610 114 578 b 236 590 204 578 236 590 b 235 473 235 545 235 513 b 446 185 235 227 259 185 b 661 431 627 185 661 270 b 649 590 661 526 649 590 b 684 587 649 590 664 587 b 819 710 735 587 819 612 b 702 834 819 800 756 834 b 619 821 658 834 619 821 "},"∕":{"x_min":49.15625,"x_max":544.765625,"ha":594,"o":"m 253 36 b 541 941 253 36 481 558 b 473 1081 562 1076 473 1081 b 321 995 473 1081 371 1118 b 50 97 257 840 72 294 b 123 -34 38 -18 123 -34 b 253 36 123 -34 206 -62 "},"V":{"x_min":39.03125,"x_max":1068.53125,"ha":1119,"o":"m 570 588 b 230 990 570 588 500 1038 b 85 527 -36 941 39 663 b 570 -6 130 391 264 -6 b 1008 468 854 -6 1008 468 b 913 993 1008 468 1193 930 b 570 588 619 1058 570 588 "},"μ":{"x_min":115.671875,"x_max":879.9375,"ha":1157,"o":"m 129 501 b 134 -100 129 501 95 247 b 302 -305 134 -100 155 -305 b 503 2 469 -305 503 -168 b 879 379 503 2 869 -84 b 713 684 879 379 899 655 b 570 484 713 684 552 701 b 526 276 570 484 594 276 b 469 480 460 276 468 365 b 321 684 469 480 506 684 b 129 501 144 684 129 501 "},"h":{"x_min":52.015625,"x_max":952.265625,"ha":1015,"o":"m 951 319 b 498 654 911 890 498 654 b 277 1048 509 894 443 1045 b 70 829 80 1051 70 829 b 70 181 28 458 70 181 b 277 -11 70 181 89 -11 b 480 175 465 -11 480 175 b 479 380 480 175 490 245 b 526 184 514 380 526 184 b 759 -6 536 -38 760 -6 b 951 319 975 31 951 319 "},"0":{"x_min":51.71875,"x_max":767.671875,"ha":822,"o":"m 767 430 b 409 980 767 700 736 980 b 51 430 107 980 51 700 b 409 5 51 161 205 5 b 767 430 613 5 767 161 m 419 530 b 468 468 447 530 468 509 b 419 416 468 443 457 416 b 366 469 385 416 366 437 b 419 530 366 509 386 530 "},".":{"x_min":66.6875,"x_max":409.6875,"ha":489,"o":"m 409 161 b 238 336 409 256 349 336 b 66 161 127 336 66 256 b 238 -13 66 63 127 -13 b 409 161 349 -13 409 63 "},"”":{"x_min":59.109375,"x_max":681.46875,"ha":764,"o":"m 347 865 b 202 1004 343 941 294 1004 b 59 858 109 1004 59 938 b 191 711 59 779 105 716 b 173 673 192 694 196 673 b 144 651 173 673 151 673 b 173 608 144 651 131 613 b 347 865 173 608 361 570 m 680 865 b 535 1004 676 941 627 1004 b 392 858 442 1004 392 938 b 524 711 392 779 438 716 b 506 673 525 694 529 673 b 477 651 506 673 484 673 b 506 608 477 651 464 613 b 680 865 506 608 694 570 "},"@":{"x_min":57.71875,"x_max":921.34375,"ha":986,"o":"m 218 637 b 57 453 68 637 57 494 b 184 282 57 286 180 282 b 212 280 193 280 203 280 b 320 340 304 280 320 340 b 391 278 328 282 377 278 b 490 468 410 278 490 267 b 391 642 490 468 489 642 b 314 585 335 642 317 594 b 218 637 312 593 291 637 m 610 673 b 489 582 564 673 489 657 b 588 499 489 510 549 499 b 622 501 607 499 622 501 b 618 408 619 468 618 437 b 718 271 618 329 634 271 b 807 440 794 271 807 374 b 804 497 807 474 804 497 l 815 497 b 921 582 843 497 921 504 b 796 685 921 693 796 657 b 701 792 796 715 788 792 b 607 697 619 792 607 733 b 610 673 607 683 610 673 m 832 201 b 472 204 832 201 665 204 b 140 200 361 204 241 204 b 69 150 69 197 69 150 b 136 108 69 150 69 111 b 449 103 216 104 332 103 b 846 112 606 103 765 107 b 899 155 896 117 899 149 b 832 201 899 164 895 201 m 280 469 b 305 442 294 469 305 460 b 280 417 305 425 294 417 b 256 442 267 417 256 425 b 280 469 256 460 267 469 "},"f":{"x_min":-0.09375,"x_max":774.65625,"ha":793,"o":"m 574 712 b 581 786 571 763 581 786 b 662 834 598 836 662 834 b 755 920 752 831 755 920 b 654 1048 767 1018 654 1048 b 265 965 378 1125 265 965 b 191 715 175 847 191 715 b 0 605 122 731 -4 716 b 191 504 8 445 191 504 b 419 -22 186 176 185 -33 b 604 504 687 -11 604 504 b 774 622 604 504 781 473 b 574 712 767 775 574 712 "},";":{"x_min":68.328125,"x_max":371.890625,"ha":468,"o":"m 371 554 b 220 708 371 637 320 708 b 71 554 125 708 71 637 b 220 400 71 466 125 400 b 371 554 320 400 371 466 m 366 134 b 218 279 362 213 312 279 b 68 127 120 279 68 212 b 205 -25 68 45 115 -18 b 188 -63 207 -41 209 -63 b 158 -86 188 -63 164 -63 b 188 -130 158 -86 143 -125 b 366 134 188 -130 381 -169 "},"“":{"x_min":47.53125,"x_max":669.890625,"ha":751,"o":"m 381 727 b 526 588 385 651 434 588 b 669 734 619 588 669 654 b 537 881 669 813 623 876 b 555 919 536 898 532 919 b 584 941 555 919 577 919 b 555 984 584 941 597 979 b 381 727 555 984 367 1022 m 48 727 b 193 588 52 651 101 588 b 336 734 286 588 336 654 b 204 881 336 813 290 876 b 222 919 203 898 199 919 b 251 941 222 919 244 919 b 222 984 251 941 264 979 b 48 727 222 984 34 1022 "},"i":{"x_min":54.9375,"x_max":492.03125,"ha":540,"o":"m 413 920 b 234 1054 405 1004 323 1063 b 84 886 142 1044 76 968 b 265 752 93 802 172 743 b 413 920 355 762 421 838 m 472 140 b 473 550 515 401 473 550 b 272 713 473 550 439 723 b 83 551 272 713 127 720 b 88 100 83 551 16 301 b 281 -20 88 100 127 -26 b 472 140 281 -20 445 -25 "},"6":{"x_min":59.28125,"x_max":784.0625,"ha":853,"o":"m 784 325 b 509 615 784 325 793 615 b 588 715 509 615 528 644 b 581 937 588 715 706 841 b 300 909 581 937 450 1047 b 64 330 300 909 19 694 b 442 -8 64 330 110 -8 b 784 325 442 -8 784 -13 m 428 380 b 481 322 462 380 481 351 b 428 270 481 290 458 270 b 374 322 398 270 377 283 b 428 380 371 351 397 380 "},"A":{"x_min":45.265625,"x_max":970.28125,"ha":1036,"o":"m 846 12 b 969 275 990 63 969 275 b 785 830 959 538 864 713 b 507 1002 665 1006 517 1002 b 231 830 498 1002 349 1006 b 46 275 151 713 55 538 b 168 12 46 275 25 63 b 374 27 168 12 281 -27 b 507 237 479 91 503 209 b 641 27 510 209 536 91 b 846 12 733 -27 846 12 m 513 512 b 566 454 547 512 566 483 b 513 402 566 422 543 402 b 458 454 483 402 461 415 b 513 512 455 483 481 512 "},"‘":{"x_min":47.53125,"x_max":336.890625,"ha":396,"o":"m 48 727 b 193 588 52 651 101 588 b 336 734 286 588 336 654 b 204 881 336 813 290 876 b 222 919 203 898 199 919 b 251 941 222 919 244 919 b 222 984 251 941 264 979 b 48 727 222 984 34 1022 "},"n":{"x_min":49.859375,"x_max":952.265625,"ha":994,"o":"m 951 319 b 475 619 911 890 475 619 b 253 720 450 662 412 730 b 54 501 70 709 54 501 b 70 181 38 305 70 181 b 277 -11 70 181 99 -13 b 480 175 465 -8 480 175 b 479 380 480 175 490 245 b 526 184 514 380 526 184 b 759 -6 536 -38 760 -6 b 951 319 975 31 951 319 "},"O":{"x_min":44.921875,"x_max":970.46875,"ha":1039,"o":"m 534 977 b 44 454 534 977 44 1029 b 534 -15 44 454 44 -15 b 970 506 534 -15 970 -15 b 534 977 970 506 970 977 m 514 531 b 567 473 548 531 567 502 b 514 422 567 441 544 422 b 460 473 484 422 462 434 b 514 531 457 502 483 531 "},"3":{"x_min":36.5625,"x_max":797.796875,"ha":858,"o":"m 334 984 b 59 815 334 984 62 981 b 329 687 59 815 39 654 b 176 551 314 683 176 648 b 333 416 176 551 163 416 b 424 380 333 416 401 420 b 411 295 424 380 453 333 b 276 304 411 295 360 251 b 83 304 276 304 160 383 b 121 68 83 304 -43 181 b 631 38 121 68 359 -80 b 794 387 631 38 823 127 b 637 618 794 387 777 552 b 680 880 637 618 752 745 b 334 984 613 1004 334 984 "},"]":{"x_min":14.78125,"x_max":741.96875,"ha":808,"o":"m 142 1000 b 378 1000 182 997 296 993 b 371 118 371 895 352 375 b 378 43 374 93 374 63 b 130 23 295 37 191 33 b 14 -77 8 4 14 -77 b 122 -175 14 -77 5 -150 b 581 -159 258 -204 465 -197 b 692 -76 620 -147 681 -102 b 736 105 745 5 736 105 b 729 926 736 105 752 758 b 518 1227 729 926 724 1181 b 144 1223 443 1244 307 1255 b 25 1101 17 1198 25 1101 b 142 1000 25 1101 14 1009 "},"m":{"x_min":52.265625,"x_max":1299.84375,"ha":1381,"o":"m 1106 694 b 671 461 804 793 687 523 b 224 694 656 523 530 811 b 58 155 2 609 58 155 b 243 -19 58 155 77 -19 b 438 279 424 -19 438 243 b 671 -23 442 233 472 -23 b 898 273 868 -23 894 229 b 1106 -19 896 238 906 -19 b 1286 145 1253 -19 1286 145 b 1106 694 1286 145 1373 606 "},"9":{"x_min":47.609375,"x_max":783,"ha":846,"o":"m 47 650 b 321 361 47 650 38 361 b 243 261 321 361 302 330 b 247 30 243 261 126 129 b 530 65 247 30 370 -79 b 778 650 530 65 822 286 b 412 984 778 650 744 984 b 47 650 412 984 47 988 m 423 655 b 476 597 457 655 476 626 b 423 545 476 565 453 545 b 368 597 393 545 371 558 b 423 655 366 626 392 655 "},"l":{"x_min":43.71875,"x_max":493.328125,"ha":547,"o":"m 53 280 b 261 -19 53 280 70 -13 b 477 190 465 -25 477 190 b 484 756 477 190 507 463 b 273 1052 460 1063 273 1052 b 59 777 76 1052 59 777 b 53 280 59 777 28 490 "},"8":{"x_min":54.5,"x_max":798.90625,"ha":868,"o":"m 798 297 b 655 559 798 405 753 500 b 717 733 698 600 717 656 b 418 986 717 895 590 986 b 117 733 246 986 118 894 b 187 561 115 666 137 606 b 54 297 95 506 54 416 b 425 -25 54 86 209 -25 b 798 297 642 -25 798 86 m 429 379 b 482 320 463 379 482 350 b 429 269 482 288 459 269 b 375 320 399 269 377 281 b 429 379 372 350 398 379 m 429 745 b 482 687 463 745 482 716 b 429 636 482 655 459 636 b 375 687 399 636 377 648 b 429 745 372 716 398 745 "},"p":{"x_min":37.890625,"x_max":917.171875,"ha":953,"o":"m 47 -105 b 268 -348 47 -105 73 -348 b 435 25 516 -348 435 25 b 814 69 435 25 637 -79 b 905 469 909 150 935 350 b 758 669 871 602 758 669 b 179 600 582 769 307 750 b 47 -105 -16 369 47 -105 m 499 380 b 552 322 533 380 552 351 b 499 270 552 290 529 270 b 445 322 469 270 448 283 b 499 380 442 351 468 380 "},"4":{"x_min":43.734375,"x_max":834.859375,"ha":901,"o":"m 834 400 b 730 522 834 400 834 519 b 547 970 730 522 761 911 b 139 750 547 970 305 1050 b 139 309 139 750 -75 369 b 361 280 139 309 218 280 b 539 -9 361 280 318 -9 b 730 280 777 -9 730 280 b 834 400 730 280 834 287 m 340 600 b 393 541 374 600 393 570 b 340 490 393 509 370 490 b 286 541 310 490 288 502 b 340 600 283 570 309 600 "},"‡":{"x_min":44.921875,"x_max":819.390625,"ha":890,"o":"m 619 219 b 702 207 619 219 658 207 b 819 330 756 207 819 240 b 684 454 819 429 735 454 b 661 452 675 454 666 454 l 661 587 l 684 587 b 819 711 735 587 819 612 b 702 834 819 801 756 834 b 619 822 658 834 619 822 b 624 909 623 855 624 882 b 394 1065 624 1019 585 1065 b 234 868 253 1065 234 940 b 236 825 234 841 236 825 b 186 830 221 828 204 830 b 44 708 119 830 44 791 b 166 579 44 611 114 579 b 235 588 198 579 228 587 l 235 451 b 166 462 230 452 201 462 b 44 333 114 462 44 430 b 186 211 44 250 119 211 b 236 216 204 211 221 213 b 234 173 236 216 234 200 b 394 -23 234 101 253 -23 b 624 132 585 -23 624 22 b 619 219 624 159 623 186 "},"R":{"x_min":52.421875,"x_max":915.453125,"ha":954,"o":"m 845 720 b 476 984 845 720 796 983 b 86 711 476 984 163 1015 b 95 155 86 711 4 477 b 325 -11 95 155 143 -34 b 476 244 325 -11 512 5 b 842 25 483 226 638 -141 b 778 406 842 25 1042 177 b 845 720 778 406 880 522 m 476 625 b 529 566 510 625 529 595 b 476 515 529 534 506 515 b 422 566 446 515 424 527 b 476 625 419 595 445 625 "},"\r":{"x_min":0,"x_max":0,"ha":594},"o":{"x_min":28.578125,"x_max":777.203125,"ha":814,"o":"m 735 161 b 777 365 760 212 777 279 b 426 716 777 365 777 716 b 28 326 426 716 28 755 b 426 -26 28 326 28 -26 b 563 4 426 -26 490 -26 b 735 161 563 4 677 52 m 417 380 b 470 322 451 380 470 351 b 417 270 470 290 447 270 b 363 322 387 270 366 283 b 417 380 360 351 386 380 "},"5":{"x_min":53.125,"x_max":761.90625,"ha":821,"o":"m 216 947 b 78 734 216 947 84 904 b 261 462 73 550 144 502 b 359 362 261 462 379 433 b 230 344 359 362 351 280 b 59 277 230 344 106 411 b 261 5 59 277 -4 84 b 706 123 261 5 588 -66 b 711 500 706 123 827 308 b 421 637 711 500 645 622 b 698 797 466 636 695 637 b 507 965 698 797 713 931 b 216 947 507 965 334 995 "}}}
